<?xml version="1.0" encoding="utf-8"?>
<!-- Generator: Adobe Illustrator 26.1.0, SVG Export Plug-In . SVG Version: 6.00 Build 0)  -->
<svg version="1.1" id="Layer_1" xmlns="http://www.w3.org/2000/svg" xmlns:xlink="http://www.w3.org/1999/xlink" x="0px" y="0px"
	 viewBox="0 0 1920 1080" style="enable-background:new 0 0 1920 1080;" xml:space="preserve">
<style type="text/css">
	.st0{fill:none;}
	.st1{fill-rule:evenodd;clip-rule:evenodd;fill:#F5AC00;}
	.st2{fill:#F5AC00;}
	.st3{clip-path:url(#SVGID_00000100344618335567543630000012523260167265054640_);}
	.st4{fill:#FFFFFF;}
	.st5{fill-rule:evenodd;clip-rule:evenodd;fill:#002555;}
	.st6{fill:#002555;}
	.st7{clip-path:url(#SVGID_00000121982394589769629880000016383192353333674114_);}
</style>
<g id="Grupo_79" transform="translate(-1148 -33.884)">
	<g id="Grupo_48" transform="translate(20 -1.233)">
		<g id="Facebook_4" transform="translate(1262.332 37.117)">
			<polygon id="Retângulo_392" class="st0" points="859.25,277.43 859.25,277.43 859.25,277.43 			"/>
			<path id="Caminho_1" class="st1" d="M827.89,395.9v-77.93h26.61l3.8-30.41h-30.41v-19.01c0-8.56,2.85-15.21,15.21-15.21h16.15
				V225.8c-3.8,0-13.3-0.95-23.76-0.95c-22.8,0-38.96,14.26-38.96,39.92v22.8h-26.61v30.41h26.61v77.93H827.89z"/>
		</g>
		<g id="Twitter_4" transform="translate(1186.328 37.117)">
			<rect id="Retângulo_393" x="518.79" y="319.14" class="st0" width="191.5" height="80.48"/>
			<path id="Caminho_2" class="st1" d="M515.6,402.39c82.69,0,127.69-68.1,127.69-127.69v-6.08c8.5-6.47,15.89-14.27,21.89-23.1
				c-8.15,3.55-16.74,6-25.54,7.3c9.04-5.68,15.9-14.25,19.46-24.32c-8.79,4.89-18.2,8.57-27.97,10.94
				c-8.32-9.38-20.29-14.7-32.83-14.6c-24.69,0.37-44.62,20.3-44.99,44.99c-0.28,3.29,0.14,6.61,1.21,9.73
				c-36.2-1.75-69.89-19.04-92.42-47.43c-4,7.04-6.1,15.01-6.08,23.11c0.33,14.89,7.51,28.8,19.46,37.7
				c-7.31-0.15-14.45-2.25-20.68-6.08l0,0c-0.03,21.5,15.33,39.93,36.48,43.78c-3.96,1.07-8.07,1.48-12.16,1.21
				c-2.89,0.2-5.79-0.22-8.51-1.21c6.09,18.46,23.12,31.12,42.56,31.62c-15.98,12.49-35.65,19.33-55.94,19.46
				c-3.69,0.19-7.38-0.22-10.94-1.23c20.12,14.61,44.45,22.29,69.31,21.89"/>
		</g>
		<g id="Instagram_4" transform="translate(1128 37.117)">
			<path id="Caminho_3" class="st1" d="M283.44,240.05c11.41-0.43,22.84-0.11,34.21,0.95c5.52-0.07,10.99,0.9,16.15,2.85
				c7.12,3.32,12.84,9.04,16.15,16.15c1.95,5.16,2.92,10.64,2.85,16.15c0,8.56,0.95,11.41,0.95,34.21
				c0.43,11.41,0.11,22.84-0.95,34.21c0.07,5.52-0.9,10.99-2.85,16.15c-3.32,7.12-9.04,12.84-16.15,16.15
				c-5.16,1.95-10.64,2.92-16.15,2.85c-8.56,0-11.41,0.95-34.21,0.95c-11.41,0.43-22.84,0.11-34.21-0.95
				c-5.52,0.07-10.99-0.9-16.15-2.85c-7.12-3.32-12.84-9.04-16.15-16.15c-1.95-5.16-2.92-10.64-2.85-16.15
				c0-8.56-0.95-11.41-0.95-34.21c-0.43-11.41-0.11-22.84,0.95-34.21c-0.07-5.52,0.9-10.99,2.85-16.15c1.66-3.52,3.91-6.74,6.65-9.5
				c2.23-3.32,5.62-5.69,9.5-6.65c5.16-1.95,10.64-2.92,16.15-2.85C260.6,239.94,272.02,239.63,283.44,240.05 M283.44,224.85
				c-11.73-0.42-23.47-0.1-35.16,0.95c-7.14-0.02-14.23,1.26-20.92,3.78c-5.76,1.89-10.98,5.16-15.19,9.52
				c-4.37,4.21-7.63,9.43-9.52,15.19c-2.98,6.55-4.28,13.74-3.78,20.92c-1.05,11.69-1.37,23.43-0.95,35.16
				c-0.42,11.73-0.1,23.47,0.95,35.16c-0.02,7.14,1.26,14.23,3.78,20.91c1.89,5.77,5.16,10.99,9.52,15.21
				c4.21,4.36,9.43,7.62,15.19,9.5c6.68,2.53,13.76,3.82,20.91,3.8c11.69,1.05,23.43,1.37,35.16,0.95
				c11.73,0.42,23.47,0.1,35.16-0.95c7.14,0.02,14.23-1.27,20.91-3.8c11.6-4,20.72-13.11,24.71-24.71
				c2.53-6.68,3.82-13.76,3.8-20.91c0-9.5,0.95-12.35,0.95-35.16c0.42-11.73,0.1-23.47-0.95-35.16c0.02-7.14-1.27-14.23-3.8-20.91
				c-1.88-5.76-5.14-10.98-9.5-15.19c-4.22-4.37-9.44-7.64-15.21-9.52c-6.68-2.52-13.77-3.8-20.91-3.78
				C306.91,224.75,295.17,224.43,283.44,224.85 M283.44,266.66c-23.75-0.39-43.32,18.55-43.71,42.3c-0.01,0.47-0.01,0.94,0,1.41
				c0,24.14,19.57,43.71,43.71,43.71s43.71-19.57,43.71-43.71S307.58,266.66,283.44,266.66L283.44,266.66 M283.44,338.88
				c-15.46,0.28-28.23-12.02-28.51-27.48c-0.01-0.34-0.01-0.69,0-1.03c-0.28-15.46,12.02-28.23,27.48-28.51
				c0.34-0.01,0.69-0.01,1.03,0c15.46-0.28,28.23,12.02,28.51,27.48c0.01,0.34,0.01,0.69,0,1.03c0.28,15.46-12.02,28.23-27.48,28.51
				C284.12,338.89,283.78,338.89,283.44,338.88 M329.05,254.29c-5.77,0-10.45,4.68-10.45,10.45s4.68,10.45,10.45,10.45
				s10.45-4.68,10.45-10.45C339.45,259,334.8,254.35,329.05,254.29"/>
		</g>
		<g id="Globe_3" transform="translate(1305.118 35.117)">
			<path id="Caminho_4" class="st2" d="M977.78,241.99c15.23-16.91,37.11-26.29,59.86-25.66c22.75-0.64,44.64,8.74,59.87,25.66
				c16.92,15.23,26.3,37.12,25.66,59.87c0.64,22.75-8.74,44.64-25.66,59.87c-15.23,16.92-37.12,26.3-59.87,25.66
				c-22.75,0.63-44.64-8.75-59.86-25.67c-15.67-17.09-25.66-35.63-25.66-59.87C951.49,279.11,960.87,257.22,977.78,241.99z
				 M1049.05,370.29c5.7,0,12.83-4.28,21.38-12.83c5.85-8.95,9.29-19.26,9.99-29.94c0.06-6.43-2.52-12.61-7.12-17.11
				c-4.69-5.35-11.42-8.46-18.53-8.56h-14.27c-4.4-0.26-8.73-1.23-12.83-2.85c-2.82-2.54-4.38-6.19-4.27-9.99
				c0.04-2.23,1.09-4.33,2.85-5.7c1.57-1.5,3.56-2.49,5.7-2.85c2.89,0.29,5.51,1.86,7.12,4.27c2.85,1.42,4.27,2.85,5.7,2.85
				c2.01,0.21,4.03-0.29,5.7-1.42c1.13-1.67,1.64-3.69,1.43-5.7c-0.57-5.46-3.1-10.52-7.12-14.26c4.52-8.33,6.96-17.62,7.12-27.09
				c-0.1-1.53-1.32-2.75-2.85-2.85c-3.66-1.46-7.49-2.41-11.41-2.85c-15.68,1.42-27.09,4.27-37.06,11.41
				c-8.41,7.04-13.14,17.55-12.83,28.51c-0.16,10.23,3.98,20.05,11.41,27.09c7.2,7.2,16.93,11.29,27.11,11.4l0,0v5.7
				c-0.28,5.36,1.8,10.57,5.7,14.26c3.02,4.39,7.61,7.46,12.83,8.56v25.66c0,1.42,0,1.42,1.42,2.85c1.43,1.42,1.41,1.42,2.83,1.42
				V370.29z"/>
		</g>
		<g id="Grupo_45" transform="translate(1409.446 37.117)">
			<g>
				<defs>
					<rect id="SVGID_1_" x="1154.49" y="214.33" width="188.06" height="188.06"/>
				</defs>
				<clipPath id="SVGID_00000096738085875863858330000005919915812947600801_">
					<use xlink:href="#SVGID_1_"  style="overflow:visible;"/>
				</clipPath>
				
					<g id="Grupo_44" transform="translate(-46 -2)" style="clip-path:url(#SVGID_00000096738085875863858330000005919915812947600801_);">
					<path id="Caminho_385" class="st2" d="M1354.97,404.39h-120.9c-18.55,0-33.58-15.03-33.58-33.58v-120.9
						c0-18.55,15.04-33.58,33.58-33.58c0,0,0,0,0,0h120.9c18.55,0,33.58,15.04,33.58,33.58v120.9
						C1388.56,389.36,1373.52,404.4,1354.97,404.39L1354.97,404.39"/>
					<rect id="Retângulo_426" x="1251.89" y="289.4" class="st4" width="19.46" height="62.87"/>
					<path id="Caminho_386" class="st4" d="M1261.52,281.17c6.41,0.06,11.65-5.1,11.7-11.5s-5.1-11.65-11.5-11.7
						s-11.65,5.1-11.7,11.5c0,0.03,0,0.07,0,0.1C1250,275.94,1255.14,281.13,1261.52,281.17"/>
					<path id="Caminho_387" class="st4" d="M1302.46,319.27c0-8.84,4.07-14.1,11.86-14.1c7.16,0,10.6,5.05,10.6,14.1v33h19.37v-39.8
						c0-16.83-9.55-24.98-22.87-24.98c-7.7-0.1-14.88,3.84-18.93,10.39v-8.47h-18.67v62.87h18.67L1302.46,319.27z"/>
				</g>
			</g>
		</g>
	</g>
</g>
<g id="Grupo_84" transform="translate(-6011 -2533.353)">
	<g id="Grupo_83">
		<g id="Facebook_8" transform="translate(6447.332 2535.353)">
			<polygon id="Retângulo_392-2" class="st0" points="557.37,618.42 557.37,618.42 557.37,618.42 			"/>
			<path id="Caminho_1-2" class="st5" d="M526.02,736.87v-77.91h26.6l3.8-30.4h-30.4v-19c0-8.55,2.85-15.2,15.2-15.2h16.15V566.8
				c-3.8,0-13.3-0.95-23.75-0.95c-22.8,0-38.96,14.25-38.96,39.91v22.8h-26.6v30.4h26.6v77.91H526.02z"/>
		</g>
		<g id="Twitter_8" transform="translate(6371.328 2535.353)">
			<rect id="Retângulo_393-2" x="216.98" y="660.12" class="st0" width="191.46" height="80.46"/>
			<path id="Caminho_2-2" class="st5" d="M213.8,743.36c82.68,0,127.66-68.09,127.66-127.66v-6.08c8.5-6.47,15.89-14.27,21.89-23.1
				c-8.15,3.55-16.74,6-25.53,7.3c9.04-5.68,15.9-14.25,19.45-24.31c-8.79,4.89-18.19,8.57-27.96,10.94
				c-8.32-9.37-20.29-14.69-32.82-14.59c-24.69,0.37-44.61,20.3-44.99,44.99c-0.28,3.29,0.14,6.6,1.21,9.73
				c-36.2-1.75-69.88-19.03-92.4-47.42c-4,7.04-6.1,15.01-6.08,23.11c0.33,14.89,7.5,28.8,19.45,37.69
				c-7.31-0.15-14.45-2.25-20.67-6.08l0,0c-0.03,21.49,15.33,39.92,36.47,43.77c-3.96,1.07-8.07,1.48-12.16,1.21
				c-2.89,0.2-5.79-0.22-8.51-1.21c6.09,18.46,23.12,31.11,42.55,31.61c-15.98,12.48-35.65,19.32-55.93,19.45
				c-3.69,0.19-7.38-0.22-10.94-1.23c20.12,14.61,44.44,22.29,69.3,21.89"/>
		</g>
		<g id="Instagram_8" transform="translate(6313 2535.353)">
			<path id="Caminho_3-2" class="st5" d="M-18.31,581.05c11.41-0.43,22.84-0.11,34.2,0.95c5.51-0.07,10.99,0.9,16.15,2.85
				c7.12,3.32,12.83,9.03,16.15,16.15c1.95,5.16,2.92,10.64,2.85,16.15c0,8.55,0.95,11.4,0.95,34.2c0.43,11.41,0.11,22.84-0.95,34.2
				c0.07,5.51-0.9,10.99-2.85,16.15c-3.32,7.12-9.03,12.83-16.15,16.15c-5.16,1.95-10.64,2.92-16.15,2.85
				c-8.55,0-11.4,0.95-34.2,0.95c-11.41,0.43-22.84,0.11-34.2-0.95c-5.51,0.07-10.99-0.9-16.15-2.85
				c-7.12-3.32-12.83-9.03-16.15-16.15c-1.95-5.16-2.92-10.64-2.85-16.15c0-8.55-0.95-11.4-0.95-34.2
				c-0.43-11.41-0.11-22.84,0.95-34.2c-0.07-5.51,0.9-10.99,2.85-16.15c1.66-3.52,3.91-6.74,6.65-9.5c2.23-3.32,5.62-5.69,9.5-6.65
				c5.16-1.95,10.64-2.92,16.15-2.85C-41.15,580.94-29.72,580.62-18.31,581.05 M-18.31,565.85c-11.73-0.42-23.47-0.1-35.16,0.95
				c-7.14-0.02-14.23,1.26-20.91,3.78c-5.76,1.89-10.98,5.16-15.19,9.52c-4.36,4.21-7.63,9.42-9.52,15.19
				c-2.98,6.55-4.28,13.74-3.78,20.91c-1.05,11.69-1.37,23.43-0.95,35.16c-0.42,11.73-0.1,23.47,0.95,35.16
				c-0.02,7.14,1.26,14.22,3.78,20.9c1.89,5.77,5.15,10.99,9.52,15.2c4.21,4.36,9.43,7.62,15.19,9.5c6.68,2.53,13.76,3.82,20.9,3.8
				c11.69,1.05,23.43,1.37,35.16,0.95c11.73,0.42,23.47,0.1,35.16-0.95c7.14,0.02,14.22-1.27,20.9-3.8
				c11.6-3.99,20.71-13.11,24.71-24.71c2.53-6.68,3.82-13.76,3.8-20.9c0-9.5,0.95-12.35,0.95-35.16c0.42-11.73,0.1-23.47-0.95-35.16
				c0.02-7.14-1.27-14.23-3.8-20.91c-1.88-5.76-5.14-10.98-9.5-15.19c-4.22-4.37-9.44-7.64-15.2-9.52
				c-6.68-2.52-13.76-3.8-20.9-3.78C5.16,565.75-6.59,565.43-18.31,565.85 M-18.31,607.65c-23.75-0.39-43.31,18.55-43.7,42.29
				c-0.01,0.47-0.01,0.94,0,1.41c0,24.14,19.57,43.7,43.7,43.7s43.7-19.57,43.7-43.7C25.39,627.22,5.82,607.65-18.31,607.65
				L-18.31,607.65 M-18.31,679.86c-15.46,0.28-28.22-12.02-28.5-27.48c-0.01-0.34-0.01-0.69,0-1.03
				c-0.28-15.46,12.02-28.22,27.48-28.5c0.34-0.01,0.69-0.01,1.03,0c15.46-0.28,28.22,12.02,28.5,27.48c0.01,0.34,0.01,0.69,0,1.03
				c0.28,15.46-12.02,28.22-27.48,28.5C-17.63,679.87-17.97,679.87-18.31,679.86 M27.29,595.29c-5.77,0-10.45,4.68-10.45,10.45
				s4.68,10.45,10.45,10.45c5.77,0,10.45-4.68,10.45-10.45C37.69,599.99,33.04,595.34,27.29,595.29"/>
		</g>
		<g id="Globe_7" transform="translate(6490.118 2533.353)">
			<path id="Caminho_4-2" class="st6" d="M675.87,582.99c15.23-16.91,37.11-26.29,59.85-25.66c22.75-0.64,44.63,8.74,59.86,25.66
				c16.91,15.23,26.29,37.11,25.66,59.86c0.64,22.75-8.74,44.63-25.66,59.86c-15.23,16.91-37.11,26.29-59.86,25.66
				c-22.75,0.63-44.63-8.75-59.85-25.66c-15.67-17.09-25.66-35.63-25.66-59.86C649.58,620.09,658.96,598.21,675.87,582.99z
				 M747.13,711.26c5.7,0,12.83-4.28,21.38-12.83c5.84-8.95,9.28-19.26,9.99-29.93c0.06-6.43-2.52-12.61-7.12-17.1
				c-4.68-5.35-11.42-8.46-18.53-8.55h-14.26c-4.4-0.26-8.73-1.23-12.83-2.85c-2.82-2.54-4.38-6.19-4.27-9.99
				c0.04-2.23,1.09-4.33,2.85-5.7c1.57-1.5,3.56-2.49,5.7-2.85c2.89,0.29,5.51,1.86,7.12,4.27c2.85,1.42,4.27,2.85,5.7,2.85
				c2.01,0.21,4.03-0.29,5.7-1.42c1.13-1.67,1.64-3.69,1.42-5.7c-0.57-5.46-3.1-10.52-7.12-14.25c4.52-8.32,6.96-17.61,7.12-27.08
				c-0.1-1.53-1.32-2.75-2.85-2.85c-3.66-1.45-7.49-2.41-11.4-2.85c-15.68,1.42-27.08,4.27-37.05,11.4
				c-8.41,7.04-13.13,17.54-12.83,28.5c-0.16,10.23,3.98,20.05,11.4,27.08c7.2,7.2,16.92,11.29,27.1,11.4l0,0v5.7
				c-0.28,5.36,1.8,10.57,5.7,14.25c3.02,4.39,7.61,7.46,12.83,8.55v25.66c0,1.42,0,1.42,1.42,2.85c1.42,1.42,1.41,1.42,2.83,1.42
				V711.26z"/>
		</g>
	</g>
	<g id="Grupo_45-2" transform="translate(6594.446 2535.353)">
		<g>
			<defs>
				<rect id="SVGID_00000103963385615555493290000017864965546116933249_" x="852.53" y="555.33" width="188.03" height="188.03"/>
			</defs>
			<clipPath id="SVGID_00000174572061220571548190000007160502618467901076_">
				<use xlink:href="#SVGID_00000103963385615555493290000017864965546116933249_"  style="overflow:visible;"/>
			</clipPath>
			
				<g id="Grupo_44-2" transform="translate(-46 -2)" style="clip-path:url(#SVGID_00000174572061220571548190000007160502618467901076_);">
				<path id="Caminho_385-2" class="st6" d="M1052.98,745.36H932.11c-18.54,0-33.58-15.03-33.58-33.57V590.91
					c0-18.54,15.03-33.58,33.58-33.58c0,0,0,0,0,0h120.87c18.54,0,33.58,15.03,33.58,33.58v120.87
					C1086.56,730.33,1071.53,745.36,1052.98,745.36L1052.98,745.36"/>
				<rect id="Retângulo_426-2" x="949.91" y="630.39" class="st4" width="19.46" height="62.86"/>
				<path id="Caminho_386-2" class="st4" d="M959.54,622.15c6.41,0.06,11.65-5.09,11.7-11.5s-5.09-11.65-11.5-11.7
					c-6.41-0.06-11.65,5.09-11.7,11.5c0,0.03,0,0.07,0,0.1C948.02,616.93,953.17,622.12,959.54,622.15"/>
				<path id="Caminho_387-2" class="st4" d="M1000.47,660.25c0-8.84,4.07-14.1,11.86-14.1c7.16,0,10.59,5.05,10.59,14.1v32.99h19.37
					v-39.8c0-16.82-9.55-24.98-22.87-24.98c-7.69-0.1-14.88,3.84-18.93,10.39v-8.47h-18.66v62.86h18.66L1000.47,660.25z"/>
			</g>
		</g>
	</g>
</g>
</svg>
